<svg xmlns="http://www.w3.org/2000/svg" viewBox="0 0 733.02 477.96"><defs><style>.cls-1{fill:#1d1d1b;}.cls-2{fill:#fff;}</style></defs><g id="Layer_2" data-name="Layer 2"><g id="Layer_1-2" data-name="Layer 1"><polygon class="cls-1" points="265.79 324.79 232.09 443.49 351.57 363.06 386.04 470.3 427.65 359.09 507.06 477.96 488.68 327.69 619.66 448.85 591.32 318.17 716.17 349.28 590.55 225.96 733.02 138.66 561.45 115.66 566.81 9.98 414.38 112.6 380.68 16.09 334.72 121.02 264.25 0 215.23 148.6 108.77 85.02 155.49 175.48 0 183.83 125.62 252.73 68.17 318.17 192.25 306.66 115.66 424.34 265.79 324.79"/><polygon class="cls-2" points="362.39 331.87 265.98 396.76 299.53 278.6 184.58 354.83 231.26 283.12 115.96 293.81 156.85 247.23 70.58 199.91 187.21 193.65 158.32 137.72 226.32 178.33 269.29 48.08 337.23 164.76 378.6 70.31 404.13 143.42 544.98 48.59 540.71 132.9 675.05 150.91 558.52 222.31 650.3 312.42 565.17 291.2 586.93 391.54 462.41 276.36 477.24 397.6 422.64 315.87 387.46 409.88 362.39 331.87"/><polygon class="cls-1" points="333.26 232.42 253.5 285.31 270.26 259.58 163.75 269.45 188.08 241.73 141.16 216 218.92 211.82 207.87 190.42 237.41 208.06 274.32 96.16 339.74 208.5 376.51 124.52 393.88 174.24 523.15 87.21 519.96 150.14 617.08 163.16 526.49 218.67 584.43 275.55 539.02 264.24 554.2 334.24 436.14 225.03 447.42 317.24 417.63 272.64 388.88 349.45 373.2 300.67 299.88 350.02 333.26 232.42"/></g></g></svg>