<svg xmlns="http://www.w3.org/2000/svg" viewBox="0 0 374.55 426.07"><defs><style>.cls-1{fill:#1d1d1b;}.cls-2{fill:#fff;}.cls-3{fill:none;}</style></defs><g id="Layer_2" data-name="Layer 2"><g id="Layer_1-2" data-name="Layer 1"><polygon class="cls-1" points="342.39 115.86 342.39 426.07 232 426.07 232 259.09 225.11 259.09 225.11 418.41 142.56 426.07 32.17 426.07 32.17 115.86 342.39 115.86"/><polygon class="cls-1" points="232 259.09 232 426.07 142.56 426.07 225.11 418.41 225.11 259.09 232 259.09"/><polygon class="cls-1" points="187.28 0 0 115.86 374.55 115.86 187.28 0"/><polygon class="cls-2" points="232 259.09 232 426.07 142.56 426.07 225.11 418.41 225.11 259.09 232 259.09"/><rect class="cls-2" x="61.19" y="289.05" width="45.28" height="64.34"/><rect class="cls-2" x="272.94" y="289.05" width="45.28" height="64.34"/><rect class="cls-2" x="61.19" y="144.54" width="45.28" height="64.34"/><rect class="cls-2" x="272.94" y="144.54" width="45.28" height="64.34"/><path class="cls-2" d="M189.7,287.18h0A11.05,11.05,0,0,0,179.83,298v34l19.74-1.83V296.13A8.84,8.84,0,0,0,189.7,287.18Z"/><line class="cls-3" x1="142.56" y1="426.07" x2="225.11" y2="418.41"/><rect class="cls-2" x="145.7" y="144.54" width="83.4" height="64.34"/></g></g></svg>