<svg xmlns="http://www.w3.org/2000/svg" viewBox="0 0 1580.51 42.79"><defs><style>.cls-1{fill:#1d1d1b;}</style></defs><g id="Layer_2" data-name="Layer 2"><g id="Layer_1-2" data-name="Layer 1"><path class="cls-1" d="M18.29,27V19a2.56,2.56,0,0,1,.82-1.89,2.69,2.69,0,0,1,1.95-.8,2.73,2.73,0,0,1,2.7,2.7v8.12l6.31-5.41A3.12,3.12,0,0,1,32.13,21a2.43,2.43,0,0,1,1.9.82,2.74,2.74,0,0,1,.74,1.88,2.39,2.39,0,0,1-.8,1.87L25.27,33l8.63,7.4a2.35,2.35,0,0,1,.81,1.85,2.69,2.69,0,0,1-.78,1.94A2.52,2.52,0,0,1,32,45a3,3,0,0,1-2-.76l-6.31-5.41v8.11a2.73,2.73,0,0,1-2.7,2.7,2.67,2.67,0,0,1-2-.81,2.57,2.57,0,0,1-.8-1.9v-8l-6.22,5.35a3,3,0,0,1-1.93.71,2.56,2.56,0,0,1-1.92-.82,2.7,2.7,0,0,1-.78-1.94,2.29,2.29,0,0,1,.8-1.84L17,33,8.31,25.55a2.41,2.41,0,0,1-.87-1.93,2.66,2.66,0,0,1,.81-1.92,2.6,2.6,0,0,1,1.92-.82,2.93,2.93,0,0,1,2,.76Z" transform="translate(-7.44 -11.58)"/><path class="cls-1" d="M58.11,27V19a2.6,2.6,0,0,1,.82-1.89,2.72,2.72,0,0,1,2-.8,2.62,2.62,0,0,1,1.9.8,2.59,2.59,0,0,1,.8,1.9v8.12l6.32-5.41A3.1,3.1,0,0,1,72,21a2.41,2.41,0,0,1,1.89.82,2.71,2.71,0,0,1,.75,1.88,2.37,2.37,0,0,1-.81,1.87L65.1,33l8.63,7.4a2.38,2.38,0,0,1,.8,1.85,2.72,2.72,0,0,1-.77,1.94,2.53,2.53,0,0,1-1.9.81,3,3,0,0,1-2-.76l-6.31-5.41v8.11a2.59,2.59,0,0,1-.8,1.9,2.72,2.72,0,0,1-3.86,0,2.58,2.58,0,0,1-.81-1.9v-8l-6.22,5.35A2.94,2.94,0,0,1,50,45a2.54,2.54,0,0,1-1.91-.82,2.67,2.67,0,0,1-.79-1.94,2.26,2.26,0,0,1,.81-1.84L56.79,33l-8.66-7.44a2.41,2.41,0,0,1-.87-1.93,2.63,2.63,0,0,1,.82-1.92A2.59,2.59,0,0,1,50,20.88a3,3,0,0,1,2,.76Z" transform="translate(-7.44 -11.58)"/><path class="cls-1" d="M97.94,27V19a2.56,2.56,0,0,1,.82-1.89,2.69,2.69,0,0,1,1.95-.8,2.75,2.75,0,0,1,2.7,2.7v8.12l6.31-5.41a3.12,3.12,0,0,1,2.06-.74,2.43,2.43,0,0,1,1.9.82,2.74,2.74,0,0,1,.74,1.88,2.39,2.39,0,0,1-.8,1.87L104.92,33l8.63,7.4a2.35,2.35,0,0,1,.81,1.85,2.69,2.69,0,0,1-.78,1.94,2.52,2.52,0,0,1-1.9.81,3,3,0,0,1-2-.76l-6.31-5.41v8.11a2.75,2.75,0,0,1-2.7,2.7,2.67,2.67,0,0,1-2-.81,2.57,2.57,0,0,1-.8-1.9v-8l-6.22,5.35a3,3,0,0,1-1.93.71,2.56,2.56,0,0,1-1.92-.82,2.7,2.7,0,0,1-.78-1.94,2.26,2.26,0,0,1,.8-1.84L96.62,33,88,25.55a2.41,2.41,0,0,1-.87-1.93,2.66,2.66,0,0,1,.81-1.92,2.6,2.6,0,0,1,1.92-.82,2.93,2.93,0,0,1,2,.76Z" transform="translate(-7.44 -11.58)"/><path class="cls-1" d="M137.76,27V19a2.6,2.6,0,0,1,.82-1.89,2.72,2.72,0,0,1,1.95-.8,2.62,2.62,0,0,1,1.9.8,2.59,2.59,0,0,1,.8,1.9v8.12l6.32-5.41a3.1,3.1,0,0,1,2.06-.74,2.41,2.41,0,0,1,1.89.82,2.71,2.71,0,0,1,.75,1.88,2.37,2.37,0,0,1-.81,1.87L144.75,33l8.63,7.4a2.38,2.38,0,0,1,.8,1.85,2.72,2.72,0,0,1-.77,1.94,2.53,2.53,0,0,1-1.9.81,3,3,0,0,1-2-.76l-6.31-5.41v8.11a2.59,2.59,0,0,1-.8,1.9,2.72,2.72,0,0,1-3.86,0,2.58,2.58,0,0,1-.81-1.9v-8l-6.22,5.35a2.94,2.94,0,0,1-1.93.71,2.54,2.54,0,0,1-1.91-.82,2.67,2.67,0,0,1-.79-1.94,2.26,2.26,0,0,1,.81-1.84l8.72-7.4-8.66-7.44a2.41,2.41,0,0,1-.87-1.93,2.63,2.63,0,0,1,.82-1.92,2.59,2.59,0,0,1,1.91-.82,3,3,0,0,1,2,.76Z" transform="translate(-7.44 -11.58)"/><path class="cls-1" d="M208.43,11.58h21.89a2.77,2.77,0,0,1,2.71,2.7,2.69,2.69,0,0,1-.81,2,2.57,2.57,0,0,1-1.9.82h-8.18V49h8.18A2.7,2.7,0,0,1,233,51.66a2.55,2.55,0,0,1-.81,1.91,2.62,2.62,0,0,1-1.9.79H208.43a2.7,2.7,0,0,1-2.71-2.7A2.7,2.7,0,0,1,208.43,49h8.31V17.05h-8.31a2.59,2.59,0,0,1-1.92-.81,2.64,2.64,0,0,1-.79-1.9,2.73,2.73,0,0,1,.79-2A2.58,2.58,0,0,1,208.43,11.58Z" transform="translate(-7.44 -11.58)"/><path class="cls-1" d="M272.85,14.34v40H265.6L251,21.14V51.66a2.7,2.7,0,0,1-2.7,2.7,2.7,2.7,0,0,1-2.71-2.7V11.58h7.15l14.62,33.16V14.34a2.62,2.62,0,0,1,.82-1.94,2.66,2.66,0,0,1,1.95-.82,2.55,2.55,0,0,1,1.91.8A2.69,2.69,0,0,1,272.85,14.34Z" transform="translate(-7.44 -11.58)"/><path class="cls-1" d="M285.44,54.36V14.28a2.62,2.62,0,0,1,.8-1.9,2.71,2.71,0,0,1,4.61,1.9V49H310a2.75,2.75,0,0,1,1.95.79,2.56,2.56,0,0,1,.82,1.92,2.53,2.53,0,0,1-.82,1.91,2.71,2.71,0,0,1-1.95.79Z" transform="translate(-7.44 -11.58)"/><path class="cls-1" d="M325.42,50.6l10.89-37a2.65,2.65,0,0,1,2.74-2,2.37,2.37,0,0,1,2.54,1.7l10.78,37.57a2.71,2.71,0,0,1-.64,2.72,2.41,2.41,0,0,1-1.77.79,2.53,2.53,0,0,1-2.7-2l-2.14-7.34H332.73l-2.35,7.86a1.68,1.68,0,0,1-.81,1,2.79,2.79,0,0,1-1.56.46,2.65,2.65,0,0,1-2-.8,2.72,2.72,0,0,1-.78-2A3.52,3.52,0,0,1,325.42,50.6ZM339,24.1l-4.64,15.49h9.15Z" transform="translate(-7.44 -11.58)"/><path class="cls-1" d="M392.33,14.34v40h-7.26L370.5,21.14V51.66a2.7,2.7,0,0,1-2.71,2.7,2.7,2.7,0,0,1-2.7-2.7V11.58h7.15l14.61,33.16V14.34a2.8,2.8,0,0,1,2.77-2.76,2.58,2.58,0,0,1,1.92.8A2.73,2.73,0,0,1,392.33,14.34Z" transform="translate(-7.44 -11.58)"/><path class="cls-1" d="M407.55,11.58h10.69a7.46,7.46,0,0,1,4.08,1.35,8.24,8.24,0,0,1,2.91,3.19l5.34,10.81a12.67,12.67,0,0,1-.09,12.2L425.1,49.82a8.14,8.14,0,0,1-3,3.3,7.81,7.81,0,0,1-4.32,1.24H407.49a2.7,2.7,0,0,1-2.7-2.7,2.74,2.74,0,0,1,.78-1.95,2.56,2.56,0,0,1,1.92-.82h2.83V17.05h-2.77a2.53,2.53,0,0,1-1.91-.82,2.71,2.71,0,0,1-.79-2,2.62,2.62,0,0,1,.79-1.9A2.55,2.55,0,0,1,407.55,11.58Zm8.18,5.47V49h1.89a2.88,2.88,0,0,0,2.7-1.77l5.35-10.63a8.81,8.81,0,0,0,1-3.5,7.23,7.23,0,0,0-.81-3.35l-5.53-11a3,3,0,0,0-2.84-1.64Z" transform="translate(-7.44 -11.58)"/><path class="cls-1" d="M496.19,27V19a2.56,2.56,0,0,1,.82-1.89,2.7,2.7,0,0,1,1.95-.8,2.73,2.73,0,0,1,2.7,2.7v8.12L508,21.72A3.12,3.12,0,0,1,510,21a2.43,2.43,0,0,1,1.9.82,2.74,2.74,0,0,1,.74,1.88,2.39,2.39,0,0,1-.8,1.87L503.17,33l8.63,7.4a2.35,2.35,0,0,1,.81,1.85,2.69,2.69,0,0,1-.78,1.94,2.52,2.52,0,0,1-1.9.81,3,3,0,0,1-2-.76l-6.31-5.41v8.11a2.73,2.73,0,0,1-2.7,2.7,2.67,2.67,0,0,1-2-.81,2.61,2.61,0,0,1-.8-1.9v-8L490,44.28A2.94,2.94,0,0,1,488,45a2.56,2.56,0,0,1-1.92-.82,2.7,2.7,0,0,1-.78-1.94,2.29,2.29,0,0,1,.8-1.84l8.73-7.4-8.66-7.44a2.41,2.41,0,0,1-.87-1.93,2.66,2.66,0,0,1,.81-1.92,2.6,2.6,0,0,1,1.92-.82,2.91,2.91,0,0,1,2,.76Z" transform="translate(-7.44 -11.58)"/><path class="cls-1" d="M591.45,14.34v40H584.2L569.62,21.14V51.66a2.7,2.7,0,0,1-2.7,2.7,2.7,2.7,0,0,1-2.71-2.7V11.58h7.15L586,44.74V14.34a2.62,2.62,0,0,1,.82-1.94,2.66,2.66,0,0,1,2-.82,2.55,2.55,0,0,1,1.91.8A2.69,2.69,0,0,1,591.45,14.34Z" transform="translate(-7.44 -11.58)"/><path class="cls-1" d="M604,46.25V14.34a2.65,2.65,0,0,1,.81-1.94,2.69,2.69,0,0,1,4.6,1.88v32a2.49,2.49,0,0,0,.81,1.85,2.6,2.6,0,0,0,1.9.79h11.07a2.67,2.67,0,0,0,1.92-.77,2.55,2.55,0,0,0,.79-1.87V14.34a2.69,2.69,0,0,1,.79-2,2.55,2.55,0,0,1,1.91-.8,2.58,2.58,0,0,1,1.92.8,2.73,2.73,0,0,1,.79,2V46.19a7.89,7.89,0,0,1-2.4,5.76,7.79,7.79,0,0,1-5.72,2.41H612.09A8.14,8.14,0,0,1,604,46.25Z" transform="translate(-7.44 -11.58)"/><path class="cls-1" d="M658.7,49h9.76a2.75,2.75,0,0,1,1.95.79,2.56,2.56,0,0,1,.82,1.92,2.53,2.53,0,0,1-.82,1.91,2.71,2.71,0,0,1-1.95.79H658.35a7.75,7.75,0,0,1-4-1.22,7.36,7.36,0,0,1-2.86-2.74l-6.25-12.07A12.16,12.16,0,0,1,644,33a11,11,0,0,1,1.19-5.25l6.32-11.95a8.37,8.37,0,0,1,2.8-2.94A6.59,6.59,0,0,1,658,11.58h10.68a2.57,2.57,0,0,1,1.92.8,2.62,2.62,0,0,1,.79,1.9,2.71,2.71,0,0,1-.79,2,2.54,2.54,0,0,1-1.91.82h-10.3a2.4,2.4,0,0,0-2.1,1.51l-6,11.2a6.43,6.43,0,0,0-.71,3.13,7.08,7.08,0,0,0,.77,3.35l5.73,11A2.69,2.69,0,0,0,658.7,49Z" transform="translate(-7.44 -11.58)"/><path class="cls-1" d="M683.69,54.36V14.28a2.62,2.62,0,0,1,.8-1.9,2.71,2.71,0,0,1,4.61,1.9V49h19.12a2.75,2.75,0,0,1,1.95.79,2.56,2.56,0,0,1,.82,1.92,2.53,2.53,0,0,1-.82,1.91,2.71,2.71,0,0,1-1.95.79Z" transform="translate(-7.44 -11.58)"/><path class="cls-1" d="M748.05,17.05H728.92V30.22h8.24a2.75,2.75,0,0,1,2.71,2.7,2.67,2.67,0,0,1-.79,2,2.58,2.58,0,0,1-1.92.81h-8.24V49h19.19a2.66,2.66,0,0,1,1.9.79,2.59,2.59,0,0,1,.81,1.92,2.54,2.54,0,0,1-.83,1.91,2.67,2.67,0,0,1-1.94.79H723.51V11.58h24.54a2.82,2.82,0,0,1,2.77,2.76,2.56,2.56,0,0,1-.83,1.9A2.65,2.65,0,0,1,748.05,17.05Z" transform="translate(-7.44 -11.58)"/><path class="cls-1" d="M763.5,50.6l10.89-37a2.63,2.63,0,0,1,2.73-2,2.35,2.35,0,0,1,2.54,1.7l10.79,37.57a3,3,0,0,1,.13.81,2.6,2.6,0,0,1-.78,1.91,2.38,2.38,0,0,1-1.77.79,2.55,2.55,0,0,1-2.7-2l-2.14-7.34H770.81l-2.36,7.86a1.61,1.61,0,0,1-.81,1,2.76,2.76,0,0,1-1.55.46,2.62,2.62,0,0,1-2-.8,2.72,2.72,0,0,1-.78-2A3.2,3.2,0,0,1,763.5,50.6Zm13.59-26.5-4.64,15.49h9.15Z" transform="translate(-7.44 -11.58)"/><path class="cls-1" d="M803.23,51.66V11.58h19.12A7.79,7.79,0,0,1,828.07,14a7.89,7.89,0,0,1,2.4,5.76v3.09a7.9,7.9,0,0,1-2.39,5.78,7.79,7.79,0,0,1-5.73,2.4h-3.44l11,19a3.17,3.17,0,0,1,.52,1.67,2.48,2.48,0,0,1-.84,1.88,2.7,2.7,0,0,1-1.91.79,2.64,2.64,0,0,1-2.45-1.44L812.61,31H808.7V51.66a2.53,2.53,0,0,1-.82,1.91,2.71,2.71,0,0,1-2,.79,2.7,2.7,0,0,1-2.7-2.7Zm5.41-26h13.71a2.7,2.7,0,0,0,2.71-2.7V19.75a2.7,2.7,0,0,0-2.71-2.7H808.64Z" transform="translate(-7.44 -11.58)"/><path class="cls-1" d="M894.44,27V19a2.56,2.56,0,0,1,.82-1.89,2.7,2.7,0,0,1,2-.8,2.73,2.73,0,0,1,2.7,2.7v8.12l6.31-5.41a3.12,3.12,0,0,1,2.06-.74,2.43,2.43,0,0,1,1.9.82,2.74,2.74,0,0,1,.74,1.88,2.39,2.39,0,0,1-.8,1.87L901.42,33l8.63,7.4a2.35,2.35,0,0,1,.81,1.85,2.69,2.69,0,0,1-.78,1.94,2.52,2.52,0,0,1-1.9.81,3,3,0,0,1-2-.76l-6.31-5.41v8.11a2.73,2.73,0,0,1-2.7,2.7,2.67,2.67,0,0,1-2-.81,2.61,2.61,0,0,1-.8-1.9v-8l-6.22,5.35a2.94,2.94,0,0,1-1.93.71,2.53,2.53,0,0,1-1.91-.82,2.67,2.67,0,0,1-.79-1.94,2.29,2.29,0,0,1,.8-1.84l8.73-7.4-8.66-7.44a2.41,2.41,0,0,1-.87-1.93,2.66,2.66,0,0,1,.81-1.92,2.6,2.6,0,0,1,1.92-.82,2.91,2.91,0,0,1,2,.76Z" transform="translate(-7.44 -11.58)"/><path class="cls-1" d="M989.7,41.1v2.38a10.56,10.56,0,0,1-3.17,7.68,10.34,10.34,0,0,1-7.65,3.2H962.33V11.58h16.55a10.4,10.4,0,0,1,7.65,3.18,10.54,10.54,0,0,1,3.17,7.7v2.28a10.66,10.66,0,0,1-3.7,8.18A10.8,10.8,0,0,1,989.7,41.1Zm-5.54-16.42V22.46a5.33,5.33,0,0,0-1.59-3.87A5.18,5.18,0,0,0,978.75,17h-11V30.09h11a5.19,5.19,0,0,0,3.8-1.6A5.14,5.14,0,0,0,984.16,24.68Zm0,18.8V41.23a5.33,5.33,0,0,0-1.59-3.87,5.18,5.18,0,0,0-3.82-1.61H967.81V48.89h10.94a5.46,5.46,0,0,0,5.41-5.41Z" transform="translate(-7.44 -11.58)"/><path class="cls-1" d="M1002.45,50.6l10.89-37a2.63,2.63,0,0,1,2.73-2,2.35,2.35,0,0,1,2.54,1.7l10.79,37.57a3,3,0,0,1,.13.81,2.6,2.6,0,0,1-.78,1.91,2.38,2.38,0,0,1-1.77.79,2.55,2.55,0,0,1-2.7-2l-2.14-7.34h-12.38l-2.36,7.86a1.61,1.61,0,0,1-.81,1,2.76,2.76,0,0,1-1.55.46,2.62,2.62,0,0,1-2-.8,2.72,2.72,0,0,1-.78-2A3.2,3.2,0,0,1,1002.45,50.6ZM1016,24.1l-4.64,15.49h9.15Z" transform="translate(-7.44 -11.58)"/><path class="cls-1" d="M1042.05,19V11.64h27.3V19a2.62,2.62,0,0,1-.8,1.92,2.66,2.66,0,0,1-1.9.79,2.69,2.69,0,0,1-2-.81,2.55,2.55,0,0,1-.82-1.9v-2h-5.47V51.66a2.55,2.55,0,0,1-.81,1.91,2.62,2.62,0,0,1-1.9.79,2.67,2.67,0,0,1-2-.79,2.55,2.55,0,0,1-.81-1.91V17.05h-5.47V19a2.71,2.71,0,0,1-5.41,0Z" transform="translate(-7.44 -11.58)"/><path class="cls-1" d="M1081.88,19V11.64h27.3V19a2.59,2.59,0,0,1-.81,1.92,2.66,2.66,0,0,1-1.9.79,2.69,2.69,0,0,1-2-.81,2.59,2.59,0,0,1-.82-1.9v-2h-5.47V51.66a2.58,2.58,0,0,1-.8,1.91,2.63,2.63,0,0,1-1.9.79,2.69,2.69,0,0,1-2-.79,2.58,2.58,0,0,1-.8-1.91V17.05h-5.48V19a2.7,2.7,0,1,1-5.4,0Z" transform="translate(-7.44 -11.58)"/><path class="cls-1" d="M1121.76,54.36V14.28a2.69,2.69,0,0,1,4.61-1.9,2.62,2.62,0,0,1,.8,1.9V49h19.13a2.71,2.71,0,0,1,1.94.79,2.57,2.57,0,0,1,.83,1.92,2.54,2.54,0,0,1-.83,1.91,2.67,2.67,0,0,1-1.94.79Z" transform="translate(-7.44 -11.58)"/><path class="cls-1" d="M1186.12,17.05H1167V30.22h8.24a2.62,2.62,0,0,1,1.9.8,2.59,2.59,0,0,1,.8,1.9,2.7,2.7,0,0,1-.78,2,2.59,2.59,0,0,1-1.92.81H1167V49h19.19a2.66,2.66,0,0,1,1.9.79,2.62,2.62,0,0,1,.8,1.92,2.53,2.53,0,0,1-.82,1.91,2.71,2.71,0,0,1-2,.79h-24.53V11.58h24.53a2.66,2.66,0,0,1,2,.82,2.62,2.62,0,0,1,.82,1.94,2.55,2.55,0,0,1-.82,1.9A2.69,2.69,0,0,1,1186.12,17.05Z" transform="translate(-7.44 -11.58)"/><path class="cls-1" d="M1207.51,11.58h14.08a7,7,0,0,1,4.88,2.17,7,7,0,0,1,2.31,5.26,2.64,2.64,0,0,1-.82,2,2.58,2.58,0,0,1-1.82.8,2.36,2.36,0,0,1-1.9-.63,6.65,6.65,0,0,1-1-2.33,2,2,0,0,0-2.08-1.71h-13.39c-.64,0-1,.21-1,.63a1.45,1.45,0,0,0,.4.91l20.11,25.64a6.35,6.35,0,0,1,1.45,4,6,6,0,0,1-1.75,4.25,5.33,5.33,0,0,1-3.92,1.83h-14.58a7.43,7.43,0,0,1-7.18-7c0-2,.94-3,2.83-3a2.53,2.53,0,0,1,1.87.78,2.56,2.56,0,0,1,.77,1.86,1.9,1.9,0,0,0,.6,1.44,2,2,0,0,0,1.5.58h13.45q.87,0,.87-.69a1.33,1.33,0,0,0-.39-.84l-20.08-25.64a6.35,6.35,0,0,1-1.42-4,6,6,0,0,1,1.81-4.36A5.82,5.82,0,0,1,1207.51,11.58Z" transform="translate(-7.44 -11.58)"/><path class="cls-1" d="M1241.11,51.66V14.28a2.62,2.62,0,0,1,.79-1.9,2.67,2.67,0,0,1,3.81,0,2.6,2.6,0,0,1,.81,1.9V30.22H1263V14.28a2.66,2.66,0,0,1,.79-1.9,2.58,2.58,0,0,1,1.92-.8,2.55,2.55,0,0,1,1.91.8,2.69,2.69,0,0,1,.79,2V51.66a2.57,2.57,0,0,1-.82,1.9,2.63,2.63,0,0,1-1.88.8,2.56,2.56,0,0,1-1.93-.79,2.6,2.6,0,0,1-.78-1.91v-16h-16.42v16a2.57,2.57,0,0,1-.82,1.9,2.68,2.68,0,0,1-1.94.8,2.58,2.58,0,0,1-1.9-.79A2.55,2.55,0,0,1,1241.11,51.66Z" transform="translate(-7.44 -11.58)"/><path class="cls-1" d="M1283.71,11.58h21.89a2.77,2.77,0,0,1,2.7,2.7,2.72,2.72,0,0,1-.8,2,2.57,2.57,0,0,1-1.9.82h-8.18V49h8.18a2.7,2.7,0,0,1,2.7,2.71,2.58,2.58,0,0,1-.8,1.91,2.62,2.62,0,0,1-1.9.79h-21.89a2.7,2.7,0,0,1-2.71-2.7,2.7,2.7,0,0,1,2.71-2.71h8.3V17.05h-8.3a2.56,2.56,0,0,1-1.92-.81,2.6,2.6,0,0,1-.79-1.9,2.69,2.69,0,0,1,.79-2A2.55,2.55,0,0,1,1283.71,11.58Z" transform="translate(-7.44 -11.58)"/><path class="cls-1" d="M1320.89,51.66V11.58h19.19a7.76,7.76,0,0,1,5.71,2.41,7.89,7.89,0,0,1,2.4,5.76V29.89a8.13,8.13,0,0,1-8.11,8.12h-13.72V51.66a2.7,2.7,0,0,1-2.7,2.7,2.69,2.69,0,0,1-2-.79A2.58,2.58,0,0,1,1320.89,51.66Zm5.47-19.06h13.72a2.71,2.71,0,0,0,2.7-2.71V19.75a2.58,2.58,0,0,0-.8-1.91,2.62,2.62,0,0,0-1.9-.79h-13.72Z" transform="translate(-7.44 -11.58)"/><path class="cls-1" d="M1366.81,11.58h14.08a7,7,0,0,1,4.88,2.17,7,7,0,0,1,2.31,5.26,2.64,2.64,0,0,1-.82,2,2.58,2.58,0,0,1-1.82.8,2.36,2.36,0,0,1-1.9-.63,6.65,6.65,0,0,1-1-2.33,2,2,0,0,0-2.08-1.71h-13.39c-.64,0-1,.21-1,.63a1.45,1.45,0,0,0,.4.91l20.11,25.64a6.35,6.35,0,0,1,1.45,4,6,6,0,0,1-1.75,4.25,5.33,5.33,0,0,1-3.92,1.83h-14.58a7.43,7.43,0,0,1-7.18-7c0-2,.94-3,2.83-3a2.65,2.65,0,0,1,2.64,2.64,1.9,1.9,0,0,0,.6,1.44,2,2,0,0,0,1.5.58h13.45q.87,0,.87-.69a1.33,1.33,0,0,0-.39-.84l-20.08-25.64a6.35,6.35,0,0,1-1.42-4,6,6,0,0,1,1.81-4.36A5.82,5.82,0,0,1,1366.81,11.58Z" transform="translate(-7.44 -11.58)"/><path class="cls-1" d="M1452,27V19a2.56,2.56,0,0,1,.82-1.89,2.68,2.68,0,0,1,1.94-.8,2.75,2.75,0,0,1,2.71,2.7v8.12l6.31-5.41a3.12,3.12,0,0,1,2.06-.74,2.43,2.43,0,0,1,1.9.82,2.74,2.74,0,0,1,.74,1.88,2.39,2.39,0,0,1-.8,1.87L1459,33l8.63,7.4a2.35,2.35,0,0,1,.81,1.85,2.69,2.69,0,0,1-.78,1.94,2.52,2.52,0,0,1-1.9.81,3,3,0,0,1-2-.76l-6.31-5.41v8.11a2.75,2.75,0,0,1-2.71,2.7,2.66,2.66,0,0,1-2-.81,2.57,2.57,0,0,1-.8-1.9v-8l-6.22,5.35a3,3,0,0,1-1.93.71,2.56,2.56,0,0,1-1.92-.82,2.7,2.7,0,0,1-.78-1.94,2.26,2.26,0,0,1,.8-1.84l8.73-7.4L1442,25.55a2.41,2.41,0,0,1-.87-1.93,2.66,2.66,0,0,1,.81-1.92,2.6,2.6,0,0,1,1.92-.82,2.93,2.93,0,0,1,2,.76Z" transform="translate(-7.44 -11.58)"/><path class="cls-1" d="M1491.81,27V19a2.56,2.56,0,0,1,.82-1.89,2.72,2.72,0,0,1,1.95-.8,2.62,2.62,0,0,1,1.9.8,2.59,2.59,0,0,1,.8,1.9v8.12l6.32-5.41a3.1,3.1,0,0,1,2.06-.74,2.41,2.41,0,0,1,1.89.82,2.7,2.7,0,0,1,.74,1.88,2.36,2.36,0,0,1-.8,1.87L1498.8,33l8.63,7.4a2.38,2.38,0,0,1,.8,1.85,2.72,2.72,0,0,1-.77,1.94,2.53,2.53,0,0,1-1.9.81,3,3,0,0,1-2-.76l-6.31-5.41v8.11a2.59,2.59,0,0,1-.8,1.9,2.72,2.72,0,0,1-3.86,0,2.58,2.58,0,0,1-.81-1.9v-8l-6.22,5.35a2.94,2.94,0,0,1-1.93.71,2.53,2.53,0,0,1-1.91-.82,2.67,2.67,0,0,1-.79-1.94,2.26,2.26,0,0,1,.81-1.84l8.72-7.4-8.66-7.44a2.41,2.41,0,0,1-.87-1.93,2.66,2.66,0,0,1,.81-1.92,2.63,2.63,0,0,1,1.92-.82,3,3,0,0,1,2,.76Z" transform="translate(-7.44 -11.58)"/><path class="cls-1" d="M1531.64,27V19a2.56,2.56,0,0,1,.82-1.89,2.69,2.69,0,0,1,2-.8,2.75,2.75,0,0,1,2.7,2.7v8.12l6.31-5.41a3.12,3.12,0,0,1,2.06-.74,2.43,2.43,0,0,1,1.9.82,2.74,2.74,0,0,1,.74,1.88,2.39,2.39,0,0,1-.8,1.87l-8.7,7.44,8.63,7.4a2.35,2.35,0,0,1,.81,1.85,2.69,2.69,0,0,1-.78,1.94,2.52,2.52,0,0,1-1.9.81,3,3,0,0,1-2-.76l-6.31-5.41v8.11a2.75,2.75,0,0,1-2.7,2.7,2.67,2.67,0,0,1-2-.81,2.57,2.57,0,0,1-.8-1.9v-8l-6.22,5.35a3,3,0,0,1-1.93.71,2.56,2.56,0,0,1-1.92-.82,2.7,2.7,0,0,1-.78-1.94,2.26,2.26,0,0,1,.8-1.84l8.73-7.4-8.66-7.44a2.41,2.41,0,0,1-.87-1.93,2.66,2.66,0,0,1,.81-1.92,2.6,2.6,0,0,1,1.92-.82,2.93,2.93,0,0,1,2,.76Z" transform="translate(-7.44 -11.58)"/><path class="cls-1" d="M1571.46,27V19a2.6,2.6,0,0,1,.82-1.89,2.72,2.72,0,0,1,2-.8,2.62,2.62,0,0,1,1.9.8,2.59,2.59,0,0,1,.8,1.9v8.12l6.32-5.41a3.1,3.1,0,0,1,2.06-.74,2.45,2.45,0,0,1,1.9.82,2.74,2.74,0,0,1,.74,1.88,2.37,2.37,0,0,1-.81,1.87L1578.45,33l8.63,7.4a2.38,2.38,0,0,1,.8,1.85,2.72,2.72,0,0,1-.77,1.94,2.53,2.53,0,0,1-1.9.81,3,3,0,0,1-2-.76l-6.31-5.41v8.11a2.59,2.59,0,0,1-.8,1.9,2.72,2.72,0,0,1-3.86,0,2.58,2.58,0,0,1-.81-1.9v-8l-6.22,5.35a2.94,2.94,0,0,1-1.93.71,2.53,2.53,0,0,1-1.91-.82,2.67,2.67,0,0,1-.79-1.94,2.26,2.26,0,0,1,.81-1.84l8.72-7.4-8.66-7.44a2.41,2.41,0,0,1-.87-1.93,2.66,2.66,0,0,1,.81-1.92,2.63,2.63,0,0,1,1.92-.82,3,3,0,0,1,2,.76Z" transform="translate(-7.44 -11.58)"/></g></g></svg>