<svg xmlns="http://www.w3.org/2000/svg" viewBox="0 0 411.85 182.81"><defs><style>.cls-1{fill:#1d1d1b;stroke:#fff;stroke-miterlimit:10;stroke-width:3px;}</style></defs><g id="Layer_2" data-name="Layer 2"><g id="Layer_1-2" data-name="Layer 1"><path class="cls-1" d="M210.52,19.56V159.18c-6.51.45-12.93.69-19.22.69-9.86,0-19.52-.34-28.92-1l-17,15.77a24.91,24.91,0,0,1-17,6.67l-102-.15a7.52,7.52,0,0,1-6.4-11.45l90.93.12a24.9,24.9,0,0,0,17-6.67l7.62-7.09,28-26L176,118.54H35.13C25.28,109.65,19.8,99.77,19.8,89.37S25.36,69,35.32,60H176l-35.78-38a403.47,403.47,0,0,1,51.13-3.19C197.59,18.87,204,19.11,210.52,19.56Z"/><path class="cls-1" d="M252.91,25V153.71a380.18,380.18,0,0,1-42.39,5.47V19.56A380.18,380.18,0,0,1,252.91,25Z"/><path class="cls-1" d="M323.38,89.37a116.45,116.45,0,0,0,8.06,43.31,531.56,531.56,0,0,1-78.53,21V25a531.56,531.56,0,0,1,78.53,21A116.45,116.45,0,0,0,323.38,89.37Z"/><path class="cls-1" d="M176,118.54,163.61,130l-28,26L128,163.16a24.9,24.9,0,0,1-17,6.67l-90.93-.12-11,0a7.52,7.52,0,0,1-6.31-11.6l25.51-39.55Z"/><path class="cls-1" d="M176,60H28.23V8.71A7.21,7.21,0,0,1,35.44,1.5h82.25a7.19,7.19,0,0,1,5.24,2.27l17.24,18.29Z"/><path class="cls-1" d="M410.35,89.37c0,8.74-33.47,27.39-78.91,43.31a116.45,116.45,0,0,1-8.06-43.31,116.45,116.45,0,0,1,8.06-43.31C376.88,62,410.35,80.63,410.35,89.37Z"/></g></g></svg>